 http://www.leetleech.org/images/99545811293868804858.jpg

::::::::::::::Enjoy:Another:Release:From:T0XiCiNK::::::::::::::

File::Paul.2011.TS.XViD-T0XiCiNK

Video Source:: ADDiCTED
Audio Source:: Own
Language::English
IMDB::http://www.imdb.com/title/tt1092026/

Two British comic-book geeks traveling across the U.S. encounter
an alien outside Area 51.

Specs::

General

Format : AVI
Format/Info : Audio Video Interleave
File size : 1.37 GiB
Duration : 1h 38mn
Overall bit rate : 1 999 Kbps
Writing application : VirtualDubMod 1.5.10.2 (build 2540/release)
Writing library : VirtualDubMod build 2540/release

Video
ID : 0
Format : MPEG-4 Visual
Format profile : Advanced Simple@L5
Format settings, BVOP : Yes
Format settings, QPel : No
Format settings, GMC : No warppoints
Format settings, Matrix : Default (MPEG)
Muxing mode : Packed bitstream
Codec ID : XVID
Codec ID/Hint : XviD
Duration : 1h 38mn
Bit rate : 1 861 Kbps
Width : 720 pixels
Height : 364 pixels
Display aspect ratio : 1.978
Frame rate : 25.000 fps
Color space : YUV
Chroma subsampling : 4:2:0
Bit depth : 8 bits
Scan type : Progressive
Bits/(Pixel*Frame) : 0.284
Stream size : 1.28 GiB (93%)
Writing library : XviD 58

Audio
ID : 1
Format : MPEG Audio
Format version : Version 1
Format profile : Layer 3
Mode : Joint stereo
Mode extension : MS Stereo
Codec ID : 55
Codec ID/Hint : MP3
Duration : 1h 38mn
Bit rate mode : Constant
Bit rate : 128 Kbps
Channel(s) : 2 channels
Sampling rate : 44.1 KHz
Stream size : 89.9 MiB (6%)
Alignment : Split accross interleaves
Interleave, duration : 40 ms (1.00 video frame)
Interleave, preload duration : 500 ms


NOTES:: Presenting first TS of Paul with EXCELLENT quality LiNE. Enjoy.


::Why Complain? Whats Free Is Free::

::We are always looking for friends with unreleased DVD's, Screeners, R5's, Audio, Cams, Silvers,
...and any other good sources you may have to offer -
..contact us: t0xicreleases@hushmail.com or digital.ink@live.com

:::::::::::::::::::::::::::::::::::: Respect To :::::::::::::::::::::::::::::::::::::
::IMAGiNE,FLAWL3SS,Hive-CM8,Tranz,Vik,OneTwo,Joey,bob,Unevano,SANTi & our friends on utn and PA::
"and to all of you who support us, Thank-You"
 
http://www.leetleech.org/images/20496255996974116775.png 
http://www.leetleech.org/images/66454164195672790285.png 
http://www.leetleech.org/images/45908736069145932623.png